#Comment line ignore any data following # character 
#Hierarchical Translation and Rotation (.htr) file 
[Header]	
#Header keywords are followed by a single value 
FileType HTR		#Single word string
DataType HTRS		#Translation followed by rotation and scale data
FileVersion 1		#integer
NumSegments 84		#integer
NumFrames 2		#integer
DataFrameRate 30		#integer, data frame rate in this file
EulerRotationOrder ZYX
CalibrationUnits mm
RotationUnits Degrees
GlobalAxisofGravity Y
BoneLengthAxis Y
ScaleFactor 1.00
[SegmentNames&Hierarchy]
#CHILD	PARENT
MASTER GLOBAL
root MASTER
chest root
L_mid_tent01 root
R_mid_tent01 root
spine01 root
Bip01_Neck chest
L_humerus chest
R_humerus chest
weapon_bone chest
Bip01_Head Bip01_Neck
eye_left_bone Bip01_Head
eye_right_bone Bip01_Head
L_forearm L_humerus
L_front_hand L_forearm
L_weapon_bone L_forearm
L_front_hand01_01 L_front_hand
L_front_hand02_01 L_front_hand
L_front_hand03_01 L_front_hand
L_front_hand01_02 L_front_hand01_01
L_front_hand02_02 L_front_hand02_01
L_front_hand03_02 L_front_hand03_01
R_forearm R_humerus
R_front_hand R_forearm
R_weapon_bone R_forearm
R_front_hand01_01 R_front_hand
R_front_hand02_01 R_front_hand
R_front_hand03_01 R_front_hand
R_front_hand01_02 R_front_hand01_01
R_front_hand02_02 R_front_hand02_01
R_front_hand03_02 R_front_hand03_01
null_rope01_connect L_mid_tent01
Rope1_Seg01 null_rope01_connect
Rope1_Seg02 Rope1_Seg01
Rope1_Seg03 Rope1_Seg02
Rope1_Seg04 Rope1_Seg03
Rope1_Seg05 Rope1_Seg04
Rope1_Seg06 Rope1_Seg05
Rope1_Seg07 Rope1_Seg06
Rope1_Seg09 Rope1_Seg07
L_mid_hand01 Rope1_Seg09
L_mid_hand02 Rope1_Seg09
L_mid_hand03 Rope1_Seg09
null_rope02_connect R_mid_tent01
Rope2_Seg01 null_rope02_connect
Rope2_Seg02 Rope2_Seg01
Rope2_Seg03 Rope2_Seg02
Rope2_Seg04 Rope2_Seg03
Rope2_Seg05 Rope2_Seg04
Rope2_Seg06 Rope2_Seg05
Rope2_Seg07 Rope2_Seg06
Rope2_Seg09 Rope2_Seg07
R_mid_hand01 Rope2_Seg09
R_mid_hand02 Rope2_Seg09
R_mid_hand03 Rope2_Seg09
spine02 spine01
spine03 spine02
pelvis spine03
null_rope03_connect pelvis
null_rope04_connect pelvis
Rope3_Seg01 null_rope03_connect
Rope3_Seg02 Rope3_Seg01
Rope3_Seg03 Rope3_Seg02
Rope3_Seg04 Rope3_Seg03
Rope3_Seg05 Rope3_Seg04
Rope3_Seg06 Rope3_Seg05
Rope3_Seg07 Rope3_Seg06
Rope3_Seg08 Rope3_Seg07
Rope3_Seg09 Rope3_Seg08
R_rear_hand01 Rope3_Seg09
R_rear_hand02 Rope3_Seg09
R_rear_hand03 Rope3_Seg09
Rope4_Seg01 null_rope04_connect
Rope4_Seg02 Rope4_Seg01
Rope4_Seg03 Rope4_Seg02
Rope4_Seg04 Rope4_Seg03
Rope4_Seg05 Rope4_Seg04
Rope4_Seg06 Rope4_Seg05
Rope4_Seg07 Rope4_Seg06
Rope4_Seg08 Rope4_Seg07
Rope4_Seg09 Rope4_Seg08
L_rear_hand01 Rope4_Seg09
L_rear_hand02 Rope4_Seg09
L_rear_hand03 Rope4_Seg09
[BasePosition]
#SegmentName Tx, Ty, Tz, Rx, Ry, Rz, BoneLength
MASTER 0.000000 0.000000 0.000000 -90.000000 0.000000 0.000000 10.000000 
root 0.000000 0.000000 0.000000 0.000000 0.000000 0.000000 10.000000 
chest 0.000000 0.000000 0.000000 0.000000 0.000000 0.000000 10.000000 
L_mid_tent01 0.000000 0.000000 0.000000 0.000000 0.000000 0.000000 10.000000 
R_mid_tent01 0.000000 0.000000 0.000000 0.000000 0.000000 0.000000 10.000000 
spine01 0.000000 0.000000 0.000000 0.000000 0.000000 0.000000 10.000000 
Bip01_Neck 0.000000 0.000000 0.000000 0.000000 0.000000 0.000000 10.000000 
L_humerus 0.000000 0.000000 0.000000 0.000000 0.000000 0.000000 10.000000 
R_humerus 0.000000 0.000000 0.000000 0.000000 0.000000 0.000000 10.000000 
weapon_bone 0.000000 0.000000 0.000000 0.000000 0.000000 0.000000 10.000000 
Bip01_Head 0.000000 0.000000 0.000000 0.000000 0.000000 0.000000 10.000000 
eye_left_bone 0.000000 0.000000 0.000000 0.000000 0.000000 0.000000 10.000000 
eye_right_bone 0.000000 0.000000 0.000000 0.000000 0.000000 0.000000 10.000000 
L_forearm 0.000000 0.000000 0.000000 0.000000 0.000000 0.000000 10.000000 
L_front_hand 0.000000 0.000000 0.000000 0.000000 0.000000 0.000000 10.000000 
L_weapon_bone 0.000000 0.000000 0.000000 0.000000 0.000000 0.000000 10.000000 
L_front_hand01_01 0.000000 0.000000 0.000000 0.000000 0.000000 0.000000 10.000000 
L_front_hand02_01 0.000000 0.000000 0.000000 0.000000 0.000000 0.000000 10.000000 
L_front_hand03_01 0.000000 0.000000 0.000000 0.000000 0.000000 0.000000 10.000000 
L_front_hand01_02 0.000000 0.000000 0.000000 0.000000 0.000000 0.000000 10.000000 
L_front_hand02_02 0.000000 0.000000 0.000000 0.000000 0.000000 0.000000 10.000000 
L_front_hand03_02 0.000000 0.000000 0.000000 0.000000 0.000000 0.000000 10.000000 
R_forearm 0.000000 0.000000 0.000000 0.000000 0.000000 0.000000 10.000000 
R_front_hand 0.000000 0.000000 0.000000 0.000000 0.000000 0.000000 10.000000 
R_weapon_bone 0.000000 0.000000 0.000000 0.000000 0.000000 0.000000 10.000000 
R_front_hand01_01 0.000000 0.000000 0.000000 0.000000 0.000000 0.000000 10.000000 
R_front_hand02_01 0.000000 0.000000 0.000000 0.000000 0.000000 0.000000 10.000000 
R_front_hand03_01 0.000000 0.000000 0.000000 0.000000 0.000000 0.000000 10.000000 
R_front_hand01_02 0.000000 0.000000 0.000000 0.000000 0.000000 0.000000 10.000000 
R_front_hand02_02 0.000000 0.000000 0.000000 0.000000 0.000000 0.000000 10.000000 
R_front_hand03_02 0.000000 0.000000 0.000000 0.000000 0.000000 0.000000 10.000000 
null_rope01_connect 0.000000 0.000000 0.000000 0.000000 0.000000 0.000000 10.000000 
Rope1_Seg01 0.000000 0.000000 0.000000 0.000000 0.000000 0.000000 10.000000 
Rope1_Seg02 0.000000 0.000000 0.000000 0.000000 0.000000 0.000000 10.000000 
Rope1_Seg03 0.000000 0.000000 0.000000 0.000000 0.000000 0.000000 10.000000 
Rope1_Seg04 0.000000 0.000000 0.000000 0.000000 0.000000 0.000000 10.000000 
Rope1_Seg05 0.000000 0.000000 0.000000 0.000000 0.000000 0.000000 10.000000 
Rope1_Seg06 0.000000 0.000000 0.000000 0.000000 0.000000 0.000000 10.000000 
Rope1_Seg07 0.000000 0.000000 0.000000 0.000000 0.000000 0.000000 10.000000 
Rope1_Seg09 0.000000 0.000000 0.000000 0.000000 0.000000 0.000000 10.000000 
L_mid_hand01 0.000000 0.000000 0.000000 0.000000 0.000000 0.000000 10.000000 
L_mid_hand02 0.000000 0.000000 0.000000 0.000000 0.000000 0.000000 10.000000 
L_mid_hand03 0.000000 0.000000 0.000000 0.000000 0.000000 0.000000 10.000000 
null_rope02_connect 0.000000 0.000000 0.000000 0.000000 0.000000 0.000000 10.000000 
Rope2_Seg01 0.000000 0.000000 0.000000 0.000000 0.000000 0.000000 10.000000 
Rope2_Seg02 0.000000 0.000000 0.000000 0.000000 0.000000 0.000000 10.000000 
Rope2_Seg03 0.000000 0.000000 0.000000 0.000000 0.000000 0.000000 10.000000 
Rope2_Seg04 0.000000 0.000000 0.000000 0.000000 0.000000 0.000000 10.000000 
Rope2_Seg05 0.000000 0.000000 0.000000 0.000000 0.000000 0.000000 10.000000 
Rope2_Seg06 0.000000 0.000000 0.000000 0.000000 0.000000 0.000000 10.000000 
Rope2_Seg07 0.000000 0.000000 0.000000 0.000000 0.000000 0.000000 10.000000 
Rope2_Seg09 0.000000 0.000000 0.000000 0.000000 0.000000 0.000000 10.000000 
R_mid_hand01 0.000000 0.000000 0.000000 0.000000 0.000000 0.000000 10.000000 
R_mid_hand02 0.000000 0.000000 0.000000 0.000000 0.000000 0.000000 10.000000 
R_mid_hand03 0.000000 0.000000 0.000000 0.000000 0.000000 0.000000 10.000000 
spine02 0.000000 0.000000 0.000000 0.000000 0.000000 0.000000 10.000000 
spine03 0.000000 0.000000 0.000000 0.000000 0.000000 0.000000 10.000000 
pelvis 0.000000 0.000000 0.000000 0.000000 0.000000 0.000000 10.000000 
null_rope03_connect 0.000000 0.000000 0.000000 0.000000 0.000000 0.000000 10.000000 
null_rope04_connect 0.000000 0.000000 0.000000 0.000000 0.000000 0.000000 10.000000 
Rope3_Seg01 0.000000 0.000000 0.000000 0.000000 0.000000 0.000000 10.000000 
Rope3_Seg02 0.000000 0.000000 0.000000 0.000000 0.000000 0.000000 10.000000 
Rope3_Seg03 0.000000 0.000000 0.000000 0.000000 0.000000 0.000000 10.000000 
Rope3_Seg04 0.000000 0.000000 0.000000 0.000000 0.000000 0.000000 10.000000 
Rope3_Seg05 0.000000 0.000000 0.000000 0.000000 0.000000 0.000000 10.000000 
Rope3_Seg06 0.000000 0.000000 0.000000 0.000000 0.000000 0.000000 10.000000 
Rope3_Seg07 0.000000 0.000000 0.000000 0.000000 0.000000 0.000000 10.000000 
Rope3_Seg08 0.000000 0.000000 0.000000 0.000000 0.000000 0.000000 10.000000 
Rope3_Seg09 0.000000 0.000000 0.000000 0.000000 0.000000 0.000000 10.000000 
R_rear_hand01 0.000000 0.000000 0.000000 0.000000 0.000000 0.000000 10.000000 
R_rear_hand02 0.000000 0.000000 0.000000 0.000000 0.000000 0.000000 10.000000 
R_rear_hand03 0.000000 0.000000 0.000000 0.000000 0.000000 0.000000 10.000000 
Rope4_Seg01 0.000000 0.000000 0.000000 0.000000 0.000000 0.000000 10.000000 
Rope4_Seg02 0.000000 0.000000 0.000000 0.000000 0.000000 0.000000 10.000000 
Rope4_Seg03 0.000000 0.000000 0.000000 0.000000 0.000000 0.000000 10.000000 
Rope4_Seg04 0.000000 0.000000 0.000000 0.000000 0.000000 0.000000 10.000000 
Rope4_Seg05 0.000000 0.000000 0.000000 0.000000 0.000000 0.000000 10.000000 
Rope4_Seg06 0.000000 0.000000 0.000000 0.000000 0.000000 0.000000 10.000000 
Rope4_Seg07 0.000000 0.000000 0.000000 0.000000 0.000000 0.000000 10.000000 
Rope4_Seg08 0.000000 0.000000 0.000000 0.000000 0.000000 0.000000 10.000000 
Rope4_Seg09 0.000000 0.000000 0.000000 0.000000 0.000000 0.000000 10.000000 
L_rear_hand01 0.000000 0.000000 0.000000 0.000000 0.000000 0.000000 10.000000 
L_rear_hand02 0.000000 0.000000 0.000000 0.000000 0.000000 0.000000 10.000000 
L_rear_hand03 0.000000 0.000000 0.000000 0.000000 0.000000 0.000000 10.000000 
#Beginning of Data. Separated by tabs
#Fr	Tx	Ty	Tz	Rx	Ry	Rz	SF
[MASTER]
11 0.000000 0.000000 0.000000 0.001660 0.001660 0.001660 0.000000
12 0.000000 0.000000 0.000000 0.001660 0.001660 0.001660 0.000000
[root]
11 -20.335011 -62.771053 1348.477051 -91.636734 -28.139687 -90.140015 1350.090332
12 -21.561024 -62.772186 1333.110962 -91.638908 -28.186150 -90.138229 1334.762207
[chest]
11 -84.512650 -34.090519 0.000000 -7.591806 4.971251 -179.403946 91.129311
12 -84.512650 -34.090519 0.000000 -7.673451 5.079586 -179.573486 91.129311
[L_mid_tent01]
11 27.299505 22.177483 -249.917999 -0.610703 -2.484193 42.803913 252.380875
12 27.299507 22.177477 -249.917999 -1.124862 0.460357 41.558285 252.380875
[R_mid_tent01]
11 23.228794 24.509907 226.238495 178.043167 -3.253202 41.729801 228.744751
12 23.228794 24.509907 226.238495 179.050537 -4.456289 41.488781 228.744751
[spine01]
11 -0.361383 -0.195265 0.000000 0.612294 0.454603 14.187788 0.410763
12 -0.361383 -0.195265 0.000000 0.580792 0.453313 14.055521 0.410763
[Bip01_Neck]
11 165.484543 71.581718 0.000119 175.896118 1.177290 24.871183 180.302734
12 165.484543 71.581718 0.000119 175.896118 1.177290 24.871181 180.302734
[L_humerus]
11 -13.983130 -135.272980 -120.471481 -178.868423 8.962337 -107.580009 181.680161
12 -13.983130 -135.272980 -120.471481 179.333908 5.169274 -132.958786 181.680161
[R_humerus]
11 -13.983309 -135.273102 125.287651 -174.117874 -2.360077 -106.220947 184.909012
12 -13.983309 -135.273102 125.287651 -176.127533 -0.006175 -127.987244 184.909012
[weapon_bone]
11 235.964890 -300.705902 0.000000 0.000000 -89.951546 -128.212341 382.234833
12 235.964890 -300.705902 0.000000 0.000000 -89.951546 -128.212341 382.234833
[Bip01_Head]
11 255.720261 118.538208 -28.441637 -1.424000 5.594879 -66.485672 283.289734
12 254.961670 121.058342 -26.679916 -1.361173 5.495463 -67.165619 283.500244
[eye_left_bone]
11 -24.626970 125.451866 -64.772606 0.000000 -90.000000 -99.840431 143.318359
12 -24.626970 125.451866 -64.772606 0.000000 -90.000000 -99.840431 143.318359
[eye_right_bone]
11 -24.626970 125.451866 64.327362 0.000000 -89.960434 80.159386 143.117676
12 -24.626970 125.451866 64.327362 0.000000 -89.960434 80.159386 143.117676
[L_forearm]
11 322.776093 0.000000 -0.000119 0.000160 0.002342 -82.201828 322.776093
12 322.776093 0.000000 -0.000119 0.000161 0.002342 -82.123093 322.776093
[L_front_hand]
11 241.149185 -0.042021 -3.300071 -179.481766 -2.208267 -4.624804 241.171753
12 241.149185 -0.042021 -3.300071 -179.404709 -2.186822 -6.607234 241.171753
[L_weapon_bone]
11 156.183838 0.000000 0.000000 0.002124 0.000999 39.625111 156.183838
12 156.183838 0.000000 0.000000 0.002119 0.001010 39.042133 156.183838
[L_front_hand01_01]
11 86.095154 20.947098 -0.655860 0.405585 -0.442306 -4.620490 88.609184
12 86.095154 20.947098 -0.655860 0.405585 -0.442306 -4.620490 88.609184
[L_front_hand02_01]
11 86.935165 -11.437475 24.513514 116.959465 3.630818 1.495453 91.046425
12 86.935165 -11.437475 24.513514 116.959450 3.630817 1.495453 91.046425
[L_front_hand03_01]
11 86.637497 -14.123976 -20.424902 -118.420113 -4.656305 -0.152527 90.126129
12 86.637497 -14.123976 -20.424902 -118.420097 -4.656303 -0.152527 90.126129
[L_front_hand01_02]
11 71.020905 -0.000179 0.000030 0.001534 0.001777 -8.378850 71.020905
12 71.020905 -0.000179 0.000030 0.001534 0.001777 -8.378850 71.020905
[L_front_hand02_02]
11 71.020927 -0.000119 0.000060 0.001534 0.001777 -8.378850 71.020927
12 71.020927 -0.000119 0.000060 0.001534 0.001777 -8.378850 71.020927
[L_front_hand03_02]
11 71.020905 -0.000060 0.000060 0.001534 0.001777 -8.378850 71.020905
12 71.020905 -0.000060 0.000060 0.001534 0.001777 -8.378850 71.020905
[R_forearm]
11 322.776428 -0.000060 0.000030 0.208012 -0.033243 -81.992188 322.776428
12 322.776428 -0.000060 0.000030 0.210855 -0.039198 -80.785469 322.776428
[R_front_hand]
11 238.847015 -0.006795 2.210259 -0.477774 1.659548 -4.766427 238.857239
12 238.847015 -0.006795 2.210259 -0.649116 1.599276 -10.782830 238.857239
[R_weapon_bone]
11 155.664093 0.002503 -0.000030 0.002772 0.002421 -135.877136 155.664078
12 155.664093 0.002503 -0.000030 0.002754 0.002443 -136.756271 155.664078
[R_front_hand01_01]
11 87.624611 14.231146 22.918642 -116.960213 3.496675 -1.324139 91.683487
12 87.624611 14.231146 22.918642 -116.960205 3.496675 -1.324138 91.683487
[R_front_hand02_01]
11 89.356956 14.367283 -19.491137 118.419647 -4.257089 0.609827 92.579636
12 89.356956 14.367283 -19.491137 118.419647 -4.257089 0.609827 92.579636
[R_front_hand03_01]
11 87.286232 -22.307278 -0.143439 -0.387970 -0.231462 4.232001 90.091743
12 87.286232 -22.307278 -0.143439 -0.387970 -0.231462 4.232001 90.091743
[R_front_hand01_02]
11 71.020905 0.000060 0.000119 0.001777 0.001534 8.377220 71.020905
12 71.020905 0.000060 0.000119 0.001777 0.001534 8.377220 71.020905
[R_front_hand02_02]
11 71.020844 -0.000030 -0.000119 0.001777 0.001534 8.377220 71.020836
12 71.020844 -0.000030 -0.000119 0.001777 0.001534 8.377220 71.020836
[R_front_hand03_02]
11 71.020905 0.000000 0.000030 0.001777 0.001534 8.377220 71.020905
12 71.020905 0.000000 0.000030 0.001777 0.001534 8.377220 71.020905
[null_rope01_connect]
11 328.732483 0.000000 -0.000238 130.405853 -87.836082 -55.081928 328.732483
12 328.732483 0.000000 -0.000238 -157.405273 -87.132835 -125.980423 328.732483
[Rope1_Seg01]
11 0.000000 0.000000 0.000000 -52.933857 34.302002 -88.410553 0.000000
12 0.000000 0.000000 0.000000 -57.699493 37.816284 -87.165550 0.000000
[Rope1_Seg02]
11 139.999863 -0.000179 0.000000 -20.881771 8.667826 11.617937 139.999863
12 139.999863 -0.000179 0.000000 -20.804745 7.485217 20.490112 139.999863
[Rope1_Seg03]
11 139.999924 0.000060 -0.000060 -14.850080 14.997893 81.648010 139.999924
12 139.999924 0.000060 -0.000060 -13.232891 -4.943268 77.509346 139.999924
[Rope1_Seg04]
11 139.999924 -0.000060 -0.000119 8.411704 -7.507141 36.278603 139.999924
12 139.999924 -0.000060 -0.000119 12.163642 -3.606404 28.232904 139.999924
[Rope1_Seg05]
11 139.999832 0.000119 -0.000060 3.857062 0.256738 5.515154 139.999832
12 139.999832 0.000119 -0.000060 12.260942 6.705985 9.110920 139.999832
[Rope1_Seg06]
11 139.999954 0.000119 -0.000060 2.997067 0.533502 3.509045 139.999954
12 139.999954 0.000119 -0.000060 6.672146 4.294037 4.372701 139.999954
[Rope1_Seg07]
11 139.999985 0.000060 0.000000 2.534899 0.410101 2.786234 139.999985
12 139.999985 0.000060 0.000000 3.557605 2.299013 2.364641 139.999985
[Rope1_Seg09]
11 121.602913 0.000119 -0.000089 -89.793175 -1.359789 0.847147 121.602913
12 121.602913 0.000119 -0.000089 -89.793175 -1.359789 0.847147 121.602913
[L_mid_hand01]
11 103.859421 1.038730 8.195221 104.353477 -0.000248 -0.529904 104.187431
12 103.859421 1.038730 8.195221 104.355774 -0.956058 -0.777194 104.187431
[L_mid_hand02]
11 105.572853 -4.139662 -10.864139 -135.628891 4.147943 -3.635983 106.211075
12 105.572853 -4.139662 -10.864139 -135.680969 4.839560 -4.340801 106.211075
[L_mid_hand03]
11 104.641464 17.579376 -3.913581 -18.765770 -0.214116 3.275741 106.179977
12 104.641464 17.579376 -3.913581 -18.765802 0.105102 4.206013 106.179977
[null_rope02_connect]
11 328.732849 0.000179 -0.000119 -46.370281 86.258118 57.216839 328.732849
12 328.732849 0.000179 -0.000119 -69.737183 86.121819 33.589268 328.732849
[Rope2_Seg01]
11 0.000002 0.000088 0.000080 115.937096 26.785982 -86.407997 0.000119
12 0.000006 0.000089 0.000076 110.821854 22.580790 -87.251610 0.000117
[Rope2_Seg02]
11 139.999741 -0.000060 -0.000119 34.738682 -9.174780 -29.166626 139.999756
12 139.999741 -0.000060 -0.000119 40.671745 -14.822747 -37.058121 139.999756
[Rope2_Seg03]
11 140.000107 0.000030 0.000000 69.518318 -50.184612 -88.402695 140.000107
12 140.000107 0.000030 0.000000 52.684849 -58.344147 -71.475571 140.000107
[Rope2_Seg04]
11 139.999802 0.000000 -0.000060 -4.488957 -15.908776 -5.220375 139.999802
12 139.999802 0.000000 -0.000060 -6.751882 -17.580078 -7.799707 139.999802
[Rope2_Seg05]
11 139.999985 -0.000060 0.000119 -3.260260 -7.240631 -2.350325 139.999985
12 139.999985 -0.000060 0.000119 -6.468843 -9.043783 -5.790059 139.999985
[Rope2_Seg06]
11 139.999893 -0.000030 -0.000119 -2.909931 -4.888942 -1.968808 139.999893
12 139.999893 -0.000030 -0.000119 -3.495735 -3.626292 -2.897871 139.999893
[Rope2_Seg07]
11 139.999893 0.000060 -0.000060 -2.100502 -2.859152 -1.415524 139.999893
12 139.999893 0.000060 -0.000060 -2.242338 -2.007904 -1.814396 139.999893
[Rope2_Seg09]
11 121.338966 0.000089 -0.000060 33.793236 -1.359788 -0.847141 121.338966
12 121.338966 0.000089 -0.000060 33.793236 -1.359788 -0.847141 121.338966
[R_mid_hand01]
11 104.680779 11.144459 -10.335981 -47.336269 3.795512 6.220475 105.778534
12 104.680779 11.144459 -10.335981 -47.275349 4.744051 7.096739 105.778534
[R_mid_hand02]
11 104.070427 2.443552 8.231699 75.611839 -3.350028 1.391578 104.424065
12 104.070427 2.443552 8.231699 75.589325 -4.596537 1.716218 104.424065
[R_mid_hand03]
11 106.028137 -11.221827 -5.996406 -164.430145 2.798768 -7.230777 106.788818
12 106.028137 -11.221827 -5.996406 -164.493469 3.146489 -8.476594 106.788818
[spine02]
11 129.756927 0.001550 0.000119 -0.219543 -4.249061 -4.805435 129.756927
12 129.756927 0.001550 0.000119 -0.213165 -4.250720 -4.886574 129.756927
[spine03]
11 78.682144 0.075277 -4.231135 1.036035 3.045293 1.498686 78.795860
12 78.696022 0.072861 -4.095774 1.114123 2.838357 2.359664 78.802567
[pelvis]
11 169.435242 0.051022 0.000000 0.005331 0.478295 -2.280099 169.435257
12 169.435242 0.051022 0.000000 0.006370 0.573963 -2.351002 169.435257
[null_rope03_connect]
11 -1.257226 -2.466202 137.391083 0.000000 -89.609329 109.539574 137.418976
12 -1.257226 -2.466202 137.391083 0.000000 -89.651695 109.008080 137.418976
[null_rope04_connect]
11 -1.259640 -2.480268 -137.844437 0.000000 -89.609329 109.539574 137.872513
12 -1.259640 -2.480268 -137.844437 0.000000 -89.651695 109.008080 137.872513
[Rope3_Seg01]
11 0.000000 0.000000 0.000000 -154.558487 -50.495903 -54.090179 0.000000
12 0.000000 0.000000 0.000000 -168.592255 -55.859890 -41.732811 0.000000
[Rope3_Seg02]
11 139.999924 -0.000119 0.000060 -6.140937 2.792685 -12.383656 139.999924
12 139.999924 -0.000119 0.000060 -6.603381 2.973208 -10.471524 139.999924
[Rope3_Seg03]
11 139.999924 -0.000119 0.000119 -28.994379 9.321287 -29.563299 139.999924
12 139.999924 -0.000119 0.000119 -21.800825 8.257356 -20.750996 139.999924
[Rope3_Seg04]
11 139.999924 0.000119 0.000000 -50.265114 25.391880 -30.577255 139.999924
12 139.999924 0.000119 0.000000 -46.243179 20.823992 -28.204285 139.999924
[Rope3_Seg05]
11 139.999924 -0.000238 0.000060 -11.910892 21.386435 0.466955 139.999924
12 139.999924 -0.000238 0.000060 -16.352930 22.492401 -2.247776 139.999924
[Rope3_Seg06]
11 139.999893 -0.000119 -0.000060 -3.007203 21.845224 7.762455 139.999893
12 139.999893 -0.000119 -0.000060 -3.184253 20.607460 9.230398 139.999893
[Rope3_Seg07]
11 139.999771 0.000060 -0.000119 0.775009 15.030728 6.347811 139.999771
12 139.999771 0.000060 -0.000119 1.298378 17.946913 10.475372 139.999771
[Rope3_Seg08]
11 139.999985 -0.000060 0.000000 1.183563 7.052321 2.770546 139.999985
12 139.999985 -0.000060 0.000000 1.529514 8.559744 4.298309 139.999985
[Rope3_Seg09]
11 90.185997 -0.000179 -0.000060 89.793228 -1.359877 -0.847183 90.185997
12 90.185997 -0.000179 -0.000060 89.793228 -1.359877 -0.847183 90.185997
[R_rear_hand01]
11 103.366196 -6.073594 -10.757982 -159.911102 14.619091 -24.012125 104.101845
12 103.366196 -6.073594 -10.757982 -156.894989 8.887354 -9.307902 104.101845
[R_rear_hand02]
11 100.509819 12.039542 -7.992327 -35.882572 15.724491 23.557304 101.543350
12 100.509819 12.039542 -7.992327 -38.307755 6.345307 10.983821 101.543350
[R_rear_hand03]
11 101.539970 5.215704 5.435467 83.734200 -24.775511 6.498349 101.819031
12 101.539970 5.215704 5.435467 84.234985 -9.371894 4.804685 101.819031
[Rope4_Seg01]
11 0.000010 0.000038 -0.000114 52.839142 -39.234859 -106.758003 0.000121
12 0.000010 0.000038 -0.000114 58.385136 -47.150806 -111.771324 0.000121
[Rope4_Seg02]
11 139.999985 0.000060 0.000119 4.469091 -19.481995 4.347930 139.999985
12 139.999985 0.000060 0.000119 4.933198 -16.948814 4.122338 139.999985
[Rope4_Seg03]
11 139.999924 0.000000 -0.000238 25.710423 -38.609947 14.173132 139.999924
12 139.999924 0.000000 -0.000238 20.622787 -30.472292 11.349005 139.999924
[Rope4_Seg04]
11 139.999985 0.000000 0.000119 29.795994 -17.527309 19.850327 139.999985
12 139.999985 0.000000 0.000119 29.489216 -19.556772 17.528261 139.999985
[Rope4_Seg05]
11 139.999802 -0.000060 -0.000119 16.225967 -2.304778 17.533489 139.999802
12 139.999802 -0.000060 -0.000119 17.363712 -3.624738 16.423489 139.999802
[Rope4_Seg06]
11 139.999924 0.000000 0.000060 14.189153 4.707992 27.249262 139.999924
12 139.999924 0.000000 0.000060 15.102139 3.758711 25.214977 139.999924
[Rope4_Seg07]
11 139.999802 0.000000 0.000000 4.675490 7.631844 18.346083 139.999802
12 139.999802 0.000000 0.000000 6.553517 8.693486 21.094231 139.999802
[Rope4_Seg08]
11 139.999924 0.000000 0.000119 -0.875568 3.733522 7.614255 139.999924
12 139.999924 0.000000 0.000119 -0.536251 4.418152 8.685475 139.999924
[Rope4_Seg09]
11 90.185791 0.000060 0.000060 -135.617828 2.228885 0.850567 90.185791
12 90.185791 0.000060 0.000060 -135.617828 2.228885 0.850567 90.185791
[L_rear_hand01]
11 101.696655 -8.392275 -7.654577 -36.168262 -14.968047 157.523178 102.329041
12 101.696655 -8.392275 -7.654577 -38.517063 -4.590807 171.240036 102.329041
[L_rear_hand02]
11 102.726799 -1.568258 5.773216 83.795876 23.490883 173.655762 102.900848
12 102.726799 -1.568258 5.773216 84.275444 6.555049 175.481003 102.900848
[L_rear_hand03]
11 104.552910 9.721220 -10.420293 -159.600342 -14.172174 -157.235031 105.519653
12 104.552910 9.721220 -10.420293 -156.517609 -7.767868 -173.313843 105.519653
